{"title":"Rychly Prachy (PRAHA - 13.08.2011) - Lucka","uid":6616364,"size":455590242,"categoryP":"porn","categoryS":"movies","magnet":"?xt=urn:btih:686600ba47ca6fbbc25e8b2a232b0014f6f035d7&amp;dn=Rychly+Prachy+%28PRAHA+-+13.08.2011%29+-+Lucka&amp;tr=udp%3A%2F%2Ftracker.openbittorrent.com%3A80&amp;tr=udp%3A%2F%2Fopen.demonii.com%3A1337&amp;tr=udp%3A%2F%2Ftracker.coppersurfer.tk%3A6969&amp;tr=udp%3A%2F%2Fexodus.desync.com%3A6969","seeders":0,"leechers":1,"uploader":null,"files":4,"time":1313802459,"description":"\n\n                Rychly Prachy (PRAHA - 13.08.2011) - Lucka\n\n  Without advertising kinotip!\n\nScreen:         &lt;a href=&quot; http://image.bayimg.com/dajkjaadk.jpg&quot; rel=&quot;nofollow&quot; target=&quot;_NEW&quot;&gt; http://image.bayimg.com/dajkjaadk.jpg&lt;/a&gt;\nOficial website: http://rychlyprachy.cz/\nDirect Link:    &lt;a href=&quot; http://rychlyprachy.cz/video55.cz.html&quot; rel=&quot;nofollow&quot; target=&quot;_NEW&quot;&gt; http://rychlyprachy.cz/video55.cz.html&lt;/a&gt;\n\n\n\nGeneral\nComplete name                    : Rychly Prachy (PRAHA - 13.08.2011) - Lucka.wmv\nFormat                           : Windows Media\nFile size                        : 434 MiB\nDuration                         : 23mn 3s\nOverall bit rate mode            : Constant\nOverall bit rate                 : 2 634 Kbps\nMaximum Overall bit rate         : 2 645 Kbps\nEncoded date                     : UTC 2011-08-14 21:06:13.345\nSfOriginalFPS                    : 300000\n\nVideo\nID                               : 2\nFormat                           : VC-1\nFormat profile                   : MP@ML\nCodec ID                         : WMV3\nCodec ID/Info                    : Windows Media Video 9\nCodec ID/Hint                    : WMV3\nDescription of the codec         : Windows Media Video 9 - Professional\nDuration                         : 23mn 3s\nBit rate mode                    : Constant\nBit rate                         : 2 525 Kbps\nWidth                            : 640 pixels\nHeight                           : 480 pixels\nDisplay aspect ratio             : 4:3\nFrame rate                       : 30.000 fps\nBit depth                        : 8 bits\nScan type                        : Progressive\nCompression mode                 : Lossy\nBits/(Pixel*Frame)               : 0.274\nStream size                      : 417 MiB (96%)\nLanguage                         : Czech\n\nAudio\nID                               : 1\nFormat                           : WMA\nFormat version                   : Version 2\nCodec ID                         : 161\nCodec ID/Info                    : Windows Media Audio\nDescription of the codec         : Windows Media Audio 9.2 -  96 kbps, 44 kHz, stereo (A/V) 1-pass CBR\nDuration                         : 23mn 3s\nBit rate mode                    : Constant\nBit rate                         : 96.0 Kbps\nChannel(s)                       : 2 channels\nSampling rate                    : 44.1 KHz\nBit depth                        : 16 bits\nStream size                      : 15.8 MiB (4%)\nLanguage                         : Czech\n\n\n\n\n","torrent":{"xt":"urn:btih:686600ba47ca6fbbc25e8b2a232b0014f6f035d7","amp;dn":"Rychly+Prachy+%28PRAHA+-+13.08.2011%29+-+Lucka","amp;tr":["udp%3A%2F%2Ftracker.openbittorrent.com%3A80","udp%3A%2F%2Fopen.demonii.com%3A1337","udp%3A%2F%2Ftracker.coppersurfer.tk%3A6969","udp%3A%2F%2Fexodus.desync.com%3A6969"],"infoHash":"686600ba47ca6fbbc25e8b2a232b0014f6f035d7","infoHashBuffer":{"type":"Buffer","data":[104,102,0,186,71,202,111,187,194,94,139,42,35,43,0,20,246,240,53,215]},"announce":[],"urlList":[]}}